#Comment line ignore any data following # character 
#Hierarchical Translation and Rotation (.htr) file 
[Header]	
#Header keywords are followed by a single value 
FileType HTR		#Single word string
DataType HTRS		#Translation followed by rotation and scale data
FileVersion 1		#integer
NumSegments 84		#integer
NumFrames 2		#integer
DataFrameRate 30		#integer, data frame rate in this file
EulerRotationOrder ZYX
CalibrationUnits mm
RotationUnits Degrees
GlobalAxisofGravity Y
BoneLengthAxis Y
ScaleFactor 1.00
[SegmentNames&Hierarchy]
#CHILD	PARENT
MASTER GLOBAL
root MASTER
chest root
L_mid_tent01 root
R_mid_tent01 root
spine01 root
Bip01_Neck chest
L_humerus chest
R_humerus chest
weapon_bone chest
Bip01_Head Bip01_Neck
eye_left_bone Bip01_Head
eye_right_bone Bip01_Head
L_forearm L_humerus
L_front_hand L_forearm
L_weapon_bone L_forearm
L_front_hand01_01 L_front_hand
L_front_hand02_01 L_front_hand
L_front_hand03_01 L_front_hand
L_front_hand01_02 L_front_hand01_01
L_front_hand02_02 L_front_hand02_01
L_front_hand03_02 L_front_hand03_01
R_forearm R_humerus
R_front_hand R_forearm
R_weapon_bone R_forearm
R_front_hand01_01 R_front_hand
R_front_hand02_01 R_front_hand
R_front_hand03_01 R_front_hand
R_front_hand01_02 R_front_hand01_01
R_front_hand02_02 R_front_hand02_01
R_front_hand03_02 R_front_hand03_01
null_rope01_connect L_mid_tent01
Rope1_Seg01 null_rope01_connect
Rope1_Seg02 Rope1_Seg01
Rope1_Seg03 Rope1_Seg02
Rope1_Seg04 Rope1_Seg03
Rope1_Seg05 Rope1_Seg04
Rope1_Seg06 Rope1_Seg05
Rope1_Seg07 Rope1_Seg06
Rope1_Seg09 Rope1_Seg07
L_mid_hand01 Rope1_Seg09
L_mid_hand02 Rope1_Seg09
L_mid_hand03 Rope1_Seg09
null_rope02_connect R_mid_tent01
Rope2_Seg01 null_rope02_connect
Rope2_Seg02 Rope2_Seg01
Rope2_Seg03 Rope2_Seg02
Rope2_Seg04 Rope2_Seg03
Rope2_Seg05 Rope2_Seg04
Rope2_Seg06 Rope2_Seg05
Rope2_Seg07 Rope2_Seg06
Rope2_Seg09 Rope2_Seg07
R_mid_hand01 Rope2_Seg09
R_mid_hand02 Rope2_Seg09
R_mid_hand03 Rope2_Seg09
spine02 spine01
spine03 spine02
pelvis spine03
null_rope03_connect pelvis
null_rope04_connect pelvis
Rope3_Seg01 null_rope03_connect
Rope3_Seg02 Rope3_Seg01
Rope3_Seg03 Rope3_Seg02
Rope3_Seg04 Rope3_Seg03
Rope3_Seg05 Rope3_Seg04
Rope3_Seg06 Rope3_Seg05
Rope3_Seg07 Rope3_Seg06
Rope3_Seg08 Rope3_Seg07
Rope3_Seg09 Rope3_Seg08
R_rear_hand01 Rope3_Seg09
R_rear_hand02 Rope3_Seg09
R_rear_hand03 Rope3_Seg09
Rope4_Seg01 null_rope04_connect
Rope4_Seg02 Rope4_Seg01
Rope4_Seg03 Rope4_Seg02
Rope4_Seg04 Rope4_Seg03
Rope4_Seg05 Rope4_Seg04
Rope4_Seg06 Rope4_Seg05
Rope4_Seg07 Rope4_Seg06
Rope4_Seg08 Rope4_Seg07
Rope4_Seg09 Rope4_Seg08
L_rear_hand01 Rope4_Seg09
L_rear_hand02 Rope4_Seg09
L_rear_hand03 Rope4_Seg09
[BasePosition]
#SegmentName Tx, Ty, Tz, Rx, Ry, Rz, BoneLength
MASTER 0.000000 0.000000 0.000000 -90.000000 0.000000 0.000000 10.000000 
root 0.000000 0.000000 0.000000 0.000000 0.000000 0.000000 10.000000 
chest 0.000000 0.000000 0.000000 0.000000 0.000000 0.000000 10.000000 
L_mid_tent01 0.000000 0.000000 0.000000 0.000000 0.000000 0.000000 10.000000 
R_mid_tent01 0.000000 0.000000 0.000000 0.000000 0.000000 0.000000 10.000000 
spine01 0.000000 0.000000 0.000000 0.000000 0.000000 0.000000 10.000000 
Bip01_Neck 0.000000 0.000000 0.000000 0.000000 0.000000 0.000000 10.000000 
L_humerus 0.000000 0.000000 0.000000 0.000000 0.000000 0.000000 10.000000 
R_humerus 0.000000 0.000000 0.000000 0.000000 0.000000 0.000000 10.000000 
weapon_bone 0.000000 0.000000 0.000000 0.000000 0.000000 0.000000 10.000000 
Bip01_Head 0.000000 0.000000 0.000000 0.000000 0.000000 0.000000 10.000000 
eye_left_bone 0.000000 0.000000 0.000000 0.000000 0.000000 0.000000 10.000000 
eye_right_bone 0.000000 0.000000 0.000000 0.000000 0.000000 0.000000 10.000000 
L_forearm 0.000000 0.000000 0.000000 0.000000 0.000000 0.000000 10.000000 
L_front_hand 0.000000 0.000000 0.000000 0.000000 0.000000 0.000000 10.000000 
L_weapon_bone 0.000000 0.000000 0.000000 0.000000 0.000000 0.000000 10.000000 
L_front_hand01_01 0.000000 0.000000 0.000000 0.000000 0.000000 0.000000 10.000000 
L_front_hand02_01 0.000000 0.000000 0.000000 0.000000 0.000000 0.000000 10.000000 
L_front_hand03_01 0.000000 0.000000 0.000000 0.000000 0.000000 0.000000 10.000000 
L_front_hand01_02 0.000000 0.000000 0.000000 0.000000 0.000000 0.000000 10.000000 
L_front_hand02_02 0.000000 0.000000 0.000000 0.000000 0.000000 0.000000 10.000000 
L_front_hand03_02 0.000000 0.000000 0.000000 0.000000 0.000000 0.000000 10.000000 
R_forearm 0.000000 0.000000 0.000000 0.000000 0.000000 0.000000 10.000000 
R_front_hand 0.000000 0.000000 0.000000 0.000000 0.000000 0.000000 10.000000 
R_weapon_bone 0.000000 0.000000 0.000000 0.000000 0.000000 0.000000 10.000000 
R_front_hand01_01 0.000000 0.000000 0.000000 0.000000 0.000000 0.000000 10.000000 
R_front_hand02_01 0.000000 0.000000 0.000000 0.000000 0.000000 0.000000 10.000000 
R_front_hand03_01 0.000000 0.000000 0.000000 0.000000 0.000000 0.000000 10.000000 
R_front_hand01_02 0.000000 0.000000 0.000000 0.000000 0.000000 0.000000 10.000000 
R_front_hand02_02 0.000000 0.000000 0.000000 0.000000 0.000000 0.000000 10.000000 
R_front_hand03_02 0.000000 0.000000 0.000000 0.000000 0.000000 0.000000 10.000000 
null_rope01_connect 0.000000 0.000000 0.000000 0.000000 0.000000 0.000000 10.000000 
Rope1_Seg01 0.000000 0.000000 0.000000 0.000000 0.000000 0.000000 10.000000 
Rope1_Seg02 0.000000 0.000000 0.000000 0.000000 0.000000 0.000000 10.000000 
Rope1_Seg03 0.000000 0.000000 0.000000 0.000000 0.000000 0.000000 10.000000 
Rope1_Seg04 0.000000 0.000000 0.000000 0.000000 0.000000 0.000000 10.000000 
Rope1_Seg05 0.000000 0.000000 0.000000 0.000000 0.000000 0.000000 10.000000 
Rope1_Seg06 0.000000 0.000000 0.000000 0.000000 0.000000 0.000000 10.000000 
Rope1_Seg07 0.000000 0.000000 0.000000 0.000000 0.000000 0.000000 10.000000 
Rope1_Seg09 0.000000 0.000000 0.000000 0.000000 0.000000 0.000000 10.000000 
L_mid_hand01 0.000000 0.000000 0.000000 0.000000 0.000000 0.000000 10.000000 
L_mid_hand02 0.000000 0.000000 0.000000 0.000000 0.000000 0.000000 10.000000 
L_mid_hand03 0.000000 0.000000 0.000000 0.000000 0.000000 0.000000 10.000000 
null_rope02_connect 0.000000 0.000000 0.000000 0.000000 0.000000 0.000000 10.000000 
Rope2_Seg01 0.000000 0.000000 0.000000 0.000000 0.000000 0.000000 10.000000 
Rope2_Seg02 0.000000 0.000000 0.000000 0.000000 0.000000 0.000000 10.000000 
Rope2_Seg03 0.000000 0.000000 0.000000 0.000000 0.000000 0.000000 10.000000 
Rope2_Seg04 0.000000 0.000000 0.000000 0.000000 0.000000 0.000000 10.000000 
Rope2_Seg05 0.000000 0.000000 0.000000 0.000000 0.000000 0.000000 10.000000 
Rope2_Seg06 0.000000 0.000000 0.000000 0.000000 0.000000 0.000000 10.000000 
Rope2_Seg07 0.000000 0.000000 0.000000 0.000000 0.000000 0.000000 10.000000 
Rope2_Seg09 0.000000 0.000000 0.000000 0.000000 0.000000 0.000000 10.000000 
R_mid_hand01 0.000000 0.000000 0.000000 0.000000 0.000000 0.000000 10.000000 
R_mid_hand02 0.000000 0.000000 0.000000 0.000000 0.000000 0.000000 10.000000 
R_mid_hand03 0.000000 0.000000 0.000000 0.000000 0.000000 0.000000 10.000000 
spine02 0.000000 0.000000 0.000000 0.000000 0.000000 0.000000 10.000000 
spine03 0.000000 0.000000 0.000000 0.000000 0.000000 0.000000 10.000000 
pelvis 0.000000 0.000000 0.000000 0.000000 0.000000 0.000000 10.000000 
null_rope03_connect 0.000000 0.000000 0.000000 0.000000 0.000000 0.000000 10.000000 
null_rope04_connect 0.000000 0.000000 0.000000 0.000000 0.000000 0.000000 10.000000 
Rope3_Seg01 0.000000 0.000000 0.000000 0.000000 0.000000 0.000000 10.000000 
Rope3_Seg02 0.000000 0.000000 0.000000 0.000000 0.000000 0.000000 10.000000 
Rope3_Seg03 0.000000 0.000000 0.000000 0.000000 0.000000 0.000000 10.000000 
Rope3_Seg04 0.000000 0.000000 0.000000 0.000000 0.000000 0.000000 10.000000 
Rope3_Seg05 0.000000 0.000000 0.000000 0.000000 0.000000 0.000000 10.000000 
Rope3_Seg06 0.000000 0.000000 0.000000 0.000000 0.000000 0.000000 10.000000 
Rope3_Seg07 0.000000 0.000000 0.000000 0.000000 0.000000 0.000000 10.000000 
Rope3_Seg08 0.000000 0.000000 0.000000 0.000000 0.000000 0.000000 10.000000 
Rope3_Seg09 0.000000 0.000000 0.000000 0.000000 0.000000 0.000000 10.000000 
R_rear_hand01 0.000000 0.000000 0.000000 0.000000 0.000000 0.000000 10.000000 
R_rear_hand02 0.000000 0.000000 0.000000 0.000000 0.000000 0.000000 10.000000 
R_rear_hand03 0.000000 0.000000 0.000000 0.000000 0.000000 0.000000 10.000000 
Rope4_Seg01 0.000000 0.000000 0.000000 0.000000 0.000000 0.000000 10.000000 
Rope4_Seg02 0.000000 0.000000 0.000000 0.000000 0.000000 0.000000 10.000000 
Rope4_Seg03 0.000000 0.000000 0.000000 0.000000 0.000000 0.000000 10.000000 
Rope4_Seg04 0.000000 0.000000 0.000000 0.000000 0.000000 0.000000 10.000000 
Rope4_Seg05 0.000000 0.000000 0.000000 0.000000 0.000000 0.000000 10.000000 
Rope4_Seg06 0.000000 0.000000 0.000000 0.000000 0.000000 0.000000 10.000000 
Rope4_Seg07 0.000000 0.000000 0.000000 0.000000 0.000000 0.000000 10.000000 
Rope4_Seg08 0.000000 0.000000 0.000000 0.000000 0.000000 0.000000 10.000000 
Rope4_Seg09 0.000000 0.000000 0.000000 0.000000 0.000000 0.000000 10.000000 
L_rear_hand01 0.000000 0.000000 0.000000 0.000000 0.000000 0.000000 10.000000 
L_rear_hand02 0.000000 0.000000 0.000000 0.000000 0.000000 0.000000 10.000000 
L_rear_hand03 0.000000 0.000000 0.000000 0.000000 0.000000 0.000000 10.000000 
#Beginning of Data. Separated by tabs
#Fr	Tx	Ty	Tz	Rx	Ry	Rz	SF
[MASTER]
21 2789.438965 0.000421 0.000000 0.001660 0.001660 0.001660 2789.438965
22 2867.477295 0.000433 0.000000 0.001660 0.001660 0.001660 2867.477295
[root]
21 -16.502380 -62.822109 1255.082397 -89.197830 -27.679073 -67.911484 1256.761963
22 -16.502380 -62.822109 1284.370117 -89.195778 -27.676168 -66.744408 1286.011475
[chest]
21 -84.512650 -34.090519 0.000000 -10.557111 2.525309 -174.877625 91.129311
22 -84.512650 -34.090519 0.000000 -12.027369 2.497996 -176.065689 91.129311
[L_mid_tent01]
21 27.368277 22.138117 -250.360214 -23.084145 19.004313 37.514164 252.822784
22 27.345352 22.151220 -250.212875 -16.314634 26.646465 50.285763 252.675537
[R_mid_tent01]
21 23.228794 24.509907 226.238495 -144.118195 -19.341230 22.332069 228.744751
22 23.228794 24.509907 226.238495 -155.848129 -33.680386 37.779537 228.744751
[spine01]
21 -0.361383 -0.195265 0.000000 28.914154 0.202631 4.115204 0.410763
22 -0.361383 -0.195265 0.000000 19.533400 -0.034852 8.031775 0.410763
[Bip01_Neck]
21 165.484543 71.581718 0.000119 175.896118 1.177290 24.871183 180.302734
22 165.484543 71.581718 0.000119 175.896118 1.177290 24.871183 180.302734
[L_humerus]
21 -13.983130 -135.272980 -120.471481 170.940796 81.564224 -99.189163 181.680161
22 -13.983130 -135.272980 -120.471481 170.940796 81.564224 -99.189163 181.680161
[R_humerus]
21 -13.983309 -135.273102 125.287651 -159.666046 -68.957870 -101.166077 184.909012
22 -13.983309 -135.273102 125.287651 -159.666046 -68.957870 -101.166077 184.909012
[weapon_bone]
21 235.964890 -300.705902 0.000000 0.000000 -89.951546 -128.212341 382.234833
22 235.964890 -300.705902 0.000000 0.000000 -89.951546 -128.212341 382.234833
[Bip01_Head]
21 261.355865 108.959625 -2.864346 2.248029 5.843377 -62.458344 283.173615
22 261.355865 108.959633 -2.864352 2.248029 5.843375 -62.458332 283.173615
[eye_left_bone]
21 -24.626970 125.451866 -64.772606 0.000000 -90.000000 -99.840431 143.318359
22 -24.626970 125.451866 -64.772606 0.000000 -90.000000 -99.840431 143.318359
[eye_right_bone]
21 -24.626970 125.451866 64.327362 0.000000 -89.960434 80.159386 143.117676
22 -24.626970 125.451866 64.327362 0.000000 -89.960434 80.159386 143.117676
[L_forearm]
21 322.776093 0.000000 -0.000119 0.000471 0.002300 -66.859383 322.776093
22 322.776093 0.000000 -0.000119 0.000471 0.002300 -66.859398 322.776093
[L_front_hand]
21 241.149185 -0.042021 -3.300071 -178.667953 -1.835447 -27.422342 241.171753
22 241.149185 -0.042021 -3.300071 -178.667953 -1.835447 -27.422350 241.171753
[L_weapon_bone]
21 156.183838 0.000000 0.000000 0.001660 0.001660 0.001660 156.183838
22 156.183838 0.000000 0.000000 0.001660 0.001660 0.001660 156.183838
[L_front_hand01_01]
21 86.095154 20.947098 -0.655860 0.045167 -0.597612 33.319950 88.609184
22 86.095154 20.947098 -0.655860 0.002744 -0.598747 37.445904 88.609184
[L_front_hand02_01]
21 86.935165 -11.437475 24.513514 121.427963 -29.798750 -17.238909 91.046425
22 86.935165 -11.437475 24.513514 122.775948 -33.294907 -19.813314 91.046425
[L_front_hand03_01]
21 86.637497 -14.123976 -20.424902 -122.619110 28.348423 -19.574911 90.126129
22 86.637497 -14.123976 -20.424902 -123.929443 31.799667 -22.190067 90.126129
[L_front_hand01_02]
21 71.020905 -0.000179 0.000030 0.000569 0.002277 -61.966709 71.020905
22 71.020905 -0.000179 0.000030 0.000478 0.002298 -66.516052 71.020905
[L_front_hand02_02]
21 71.020927 -0.000119 0.000060 0.000569 0.002277 -61.966709 71.020927
22 71.020927 -0.000119 0.000060 0.000478 0.002298 -66.516052 71.020927
[L_front_hand03_02]
21 71.020905 -0.000060 0.000060 0.000569 0.002277 -61.966709 71.020905
22 71.020905 -0.000060 0.000060 0.000478 0.002298 -66.516052 71.020905
[R_forearm]
21 322.776428 -0.000060 0.000030 0.199694 -0.075621 -69.903069 322.776428
22 322.776428 -0.000060 0.000030 0.199694 -0.075621 -69.903069 322.776428
[R_front_hand]
21 238.847015 -0.006795 2.210259 -1.531694 0.790216 -51.443054 238.857239
22 238.847015 -0.006795 2.210259 -1.531694 0.790216 -51.443054 238.857239
[R_weapon_bone]
21 155.664093 0.002503 -0.000030 0.003487 0.001180 -90.988930 155.664078
22 155.664093 0.002503 -0.000030 0.003487 0.001180 -90.988930 155.664078
[R_front_hand01_01]
21 87.624611 14.231146 22.918642 -121.475159 -29.924141 17.436392 91.683487
22 87.624611 14.231146 22.918642 -122.830460 -33.418301 20.016569 91.683487
[R_front_hand02_01]
21 89.356956 14.367283 -19.491137 122.769302 28.731085 20.101265 92.579636
22 89.356956 14.367283 -19.491137 124.106987 32.175575 22.738485 92.579636
[R_front_hand03_01]
21 87.286232 -22.307278 -0.143439 -0.164033 -0.425185 -33.701946 90.091743
22 87.286232 -22.307278 -0.143439 -0.134609 -0.434106 -37.827873 90.091743
[R_front_hand01_02]
21 71.020905 0.000060 0.000119 0.002277 0.000569 61.964821 71.020905
22 71.020905 0.000060 0.000119 0.002298 0.000478 66.520027 71.020905
[R_front_hand02_02]
21 71.020844 -0.000030 -0.000119 0.002277 0.000569 61.964821 71.020836
22 71.020844 -0.000030 -0.000119 0.002298 0.000478 66.520027 71.020836
[R_front_hand03_02]
21 71.020905 0.000000 0.000030 0.002277 0.000569 61.964821 71.020905
22 71.020905 0.000000 0.000030 0.002298 0.000478 66.520027 71.020905
[null_rope01_connect]
21 328.732483 0.000000 -0.000238 163.864716 -63.625084 -82.652702 328.732483
22 328.732483 0.000000 -0.000238 168.958252 -65.038979 -100.404175 328.732483
[Rope1_Seg01]
21 0.000000 0.000000 0.000000 -169.926773 66.419945 -149.189728 0.000000
22 0.000000 0.000000 0.000000 164.006866 70.576958 -174.775848 0.000000
[Rope1_Seg02]
21 139.999863 -0.000179 0.000000 -13.760208 5.659300 40.253452 139.999863
22 139.999863 -0.000179 0.000000 -8.811305 7.185795 40.503014 139.999863
[Rope1_Seg03]
21 139.999924 0.000060 -0.000060 -1.369686 -1.171762 16.249262 139.999924
22 139.999924 0.000060 -0.000060 -0.211115 -0.677882 11.561011 139.999924
[Rope1_Seg04]
21 139.999924 -0.000060 -0.000119 0.010326 -4.377607 12.229434 139.999924
22 139.999924 -0.000060 -0.000119 0.305733 -5.794164 14.629584 139.999924
[Rope1_Seg05]
21 139.999832 0.000119 -0.000060 0.901098 -6.165967 13.990373 139.999832
22 139.999832 0.000119 -0.000060 1.694143 -4.867493 12.504874 139.999832
[Rope1_Seg06]
21 139.999954 0.000119 -0.000060 1.937170 -3.226891 8.972324 139.999954
22 139.999954 0.000119 -0.000060 2.154018 -2.330903 7.508358 139.999954
[Rope1_Seg07]
21 139.999985 0.000060 0.000000 2.014368 -1.923684 6.100281 139.999985
22 139.999985 0.000060 0.000000 2.010803 -1.360232 5.089516 139.999985
[Rope1_Seg09]
21 121.602913 0.000119 -0.000089 -89.793175 -1.359789 0.847147 121.602913
22 121.602913 0.000119 -0.000089 -89.793175 -1.359789 0.847147 121.602913
[L_mid_hand01]
21 103.859421 1.038730 8.195221 105.318970 -20.241947 -5.944750 104.187431
22 103.859421 1.038730 8.195221 105.476997 -21.698414 -6.376460 104.187431
[L_mid_hand02]
21 105.572853 -4.139662 -10.864139 -138.730484 18.460613 -19.249084 106.211075
22 105.572853 -4.139662 -10.864139 -139.121078 19.457188 -20.452526 106.211075
[L_mid_hand03]
21 104.641464 17.579376 -3.913581 -17.677298 6.395949 23.170801 106.179977
22 104.641464 17.579376 -3.913581 -17.511391 6.856476 24.618546 106.179977
[null_rope02_connect]
21 328.732849 0.000179 -0.000119 -134.068726 35.251766 -35.611492 328.732849
22 328.732849 0.000179 -0.000119 -125.875618 31.270697 -11.330517 328.732849
[Rope2_Seg01]
21 0.000069 0.000107 0.000023 -161.460175 51.824001 -45.853363 0.000129
22 0.000074 0.000108 0.000018 -161.818802 61.025024 -46.871429 0.000132
[Rope2_Seg02]
21 139.999741 -0.000060 -0.000119 0.632710 -13.986770 5.058095 139.999756
22 139.999741 -0.000060 -0.000119 0.252244 -19.614393 6.803132 139.999756
[Rope2_Seg03]
21 140.000107 0.000030 0.000000 -0.164083 -19.350071 7.007671 140.000107
22 140.000107 0.000030 0.000000 0.198320 -20.125814 5.121794 140.000107
[Rope2_Seg04]
21 139.999802 0.000000 -0.000060 -0.810145 -19.190113 6.934259 139.999802
22 139.999802 0.000000 -0.000060 -1.522991 -18.631893 9.609769 139.999802
[Rope2_Seg05]
21 139.999985 -0.000060 0.000119 -1.429441 -18.141689 11.698940 139.999985
22 139.999985 -0.000060 0.000119 0.761998 -16.134068 13.774341 139.999985
[Rope2_Seg06]
21 139.999893 -0.000030 -0.000119 0.604935 -12.044562 8.684258 139.999893
22 139.999893 -0.000030 -0.000119 1.888505 -7.605050 6.413343 139.999893
[Rope2_Seg07]
21 139.999893 0.000060 -0.000060 0.763879 -6.160904 4.161597 139.999893
22 139.999893 0.000060 -0.000060 1.555421 -4.045457 3.530544 139.999893
[Rope2_Seg09]
21 121.338966 0.000089 -0.000060 33.793236 -1.359788 -0.847141 121.338966
22 121.338966 0.000089 -0.000060 33.793236 -1.359788 -0.847141 121.338966
[R_mid_hand01]
21 104.680779 11.144459 -10.335981 -44.664528 18.070995 20.156975 105.778534
22 104.680779 11.144459 -10.335981 -44.355274 18.974573 21.124483 105.778534
[R_mid_hand02]
21 104.070427 2.443552 8.231699 74.434563 -22.435429 6.604714 104.424065
22 104.070427 2.443552 8.231699 74.289070 -23.678041 6.979428 104.424065
[R_mid_hand03]
21 106.028137 -11.221827 -5.996406 -166.228409 7.848495 -26.405989 106.788818
22 106.028137 -11.221827 -5.996406 -166.402725 8.152507 -27.673399 106.788818
[spine02]
21 129.756927 0.001550 0.000119 -0.245322 -4.052060 -4.355547 129.756927
22 129.756927 0.001550 0.000119 -0.245322 -4.052059 -4.355546 129.756927
[spine03]
21 78.613617 0.087250 -4.898705 0.369659 4.260734 -4.885720 78.766144
22 78.613609 0.087256 -4.898701 0.369659 4.260734 -4.885720 78.766136
[pelvis]
21 169.435242 0.051022 0.000000 -0.010007 -0.191417 -1.897554 169.435257
22 169.435242 0.051022 0.000000 -0.010007 -0.191417 -1.897554 169.435257
[null_rope03_connect]
21 -1.257226 -2.466202 137.391083 47.899700 -46.549725 71.219986 137.418976
22 -1.257226 -2.466202 137.391083 55.352596 -54.152096 61.310516 137.418976
[null_rope04_connect]
21 -1.259640 -2.480268 -137.844437 47.899700 -46.549725 71.219986 137.872513
22 -1.259640 -2.480268 -137.844437 55.352596 -54.152096 61.310516 137.872513
[Rope3_Seg01]
21 0.000000 0.000000 0.000000 147.897354 -78.874542 -10.668188 0.000000
22 0.000000 0.000000 0.000000 158.810425 -66.739403 -17.135365 0.000000
[Rope3_Seg02]
21 139.999924 -0.000119 0.000060 -8.463955 7.471144 -12.805733 139.999924
22 139.999924 -0.000119 0.000060 -14.855788 8.961904 -15.458393 139.999924
[Rope3_Seg03]
21 139.999924 -0.000119 0.000119 -27.349142 19.593615 -26.668638 139.999924
22 139.999924 -0.000119 0.000119 -40.558826 26.972406 -28.962734 139.999924
[Rope3_Seg04]
21 139.999924 0.000119 0.000000 -26.501551 30.216640 -18.674049 139.999924
22 139.999924 0.000119 0.000000 -20.108994 35.435051 -8.809469 139.999924
[Rope3_Seg05]
21 139.999924 -0.000238 0.000060 -9.969131 27.801455 -4.670137 139.999924
22 139.999924 -0.000238 0.000060 -5.158615 27.267309 -2.320029 139.999924
[Rope3_Seg06]
21 139.999893 -0.000119 -0.000060 -1.468683 15.379452 -0.096821 139.999893
22 139.999893 -0.000119 -0.000060 0.269974 11.455168 -0.001077 139.999893
[Rope3_Seg07]
21 139.999771 0.000060 -0.000119 0.323545 6.468646 0.173508 139.999771
22 139.999771 0.000060 -0.000119 0.795529 5.210369 0.146780 139.999771
[Rope3_Seg08]
21 139.999985 -0.000060 0.000000 0.572843 3.404468 0.073112 139.999985
22 139.999985 -0.000060 0.000000 0.784326 2.815820 0.040724 139.999985
[Rope3_Seg09]
21 90.185997 -0.000179 -0.000060 89.793228 -1.359877 -0.847183 90.185997
22 90.185997 -0.000179 -0.000060 89.793228 -1.359877 -0.847183 90.185997
[R_rear_hand01]
21 103.366196 -6.073594 -10.757982 -159.090073 13.386786 -20.616554 104.101845
22 103.366196 -6.073594 -10.757982 -159.598709 14.167138 -22.751802 104.101845
[R_rear_hand02]
21 100.509819 12.039542 -7.992327 -36.626534 13.642225 20.623665 101.543350
22 100.509819 12.039542 -7.992327 -36.171692 14.961147 22.465162 101.543350
[R_rear_hand03]
21 101.539970 5.215704 5.435467 83.895897 -21.276398 6.086509 101.819031
22 101.539970 5.215704 5.435467 83.795952 -23.482494 6.345252 101.819031
[Rope4_Seg01]
21 0.000000 0.000000 0.000000 51.818066 -27.612284 -110.308907 0.000000
22 0.000000 0.000000 0.000000 49.951546 -29.576324 -105.101234 0.000000
[Rope4_Seg02]
21 139.999985 0.000060 0.000119 5.904059 -26.651667 -5.597220 139.999985
22 139.999985 0.000060 0.000119 6.627161 -29.806263 -1.804821 139.999985
[Rope4_Seg03]
21 139.999924 0.000000 -0.000238 110.974846 -55.821095 -13.737516 139.999924
22 139.999924 0.000000 -0.000238 81.544006 -57.644897 0.661608 139.999924
[Rope4_Seg04]
21 139.999985 0.000000 0.000119 33.269436 3.197365 24.360723 139.999985
22 139.999985 0.000000 0.000119 30.512375 -1.343642 22.633785 139.999985
[Rope4_Seg05]
21 139.999802 -0.000060 -0.000119 0.117841 11.083538 5.192473 139.999802
22 139.999802 -0.000060 -0.000119 4.607979 9.877300 9.690692 139.999802
[Rope4_Seg06]
21 139.999924 0.000000 0.000060 -0.315602 8.563548 3.316283 139.999924
22 139.999924 0.000000 0.000060 1.893983 7.818742 6.396070 139.999924
[Rope4_Seg07]
21 139.999802 0.000000 0.000000 0.414941 4.697862 2.711663 139.999802
22 139.999802 0.000000 0.000000 1.045254 4.272135 3.946439 139.999802
[Rope4_Seg08]
21 139.999924 0.000000 0.000119 -1.329261 2.825245 1.606568 139.999924
22 139.999924 0.000000 0.000119 -1.045117 2.575433 2.298539 139.999924
[Rope4_Seg09]
21 90.185791 0.000060 0.000060 -135.617828 2.228885 0.850567 90.185791
22 90.185791 0.000060 0.000060 -135.617828 2.228885 0.850567 90.185791
[L_rear_hand01]
21 101.696655 -8.392275 -7.654577 -37.097984 -12.101351 161.488007 102.329041
22 101.696655 -8.392275 -7.654577 -36.675041 -13.498219 159.575958 102.329041
[L_rear_hand02]
21 102.726799 -1.568258 5.773216 83.993034 18.721008 174.203247 102.900848
22 102.726799 -1.568258 5.773216 83.906593 21.035519 173.944992 102.900848
[L_rear_hand03]
21 104.552910 9.721220 -10.420293 -158.537842 -12.454073 -161.844238 105.519653
22 104.552910 9.721220 -10.420293 -159.035812 -13.298707 -159.616318 105.519653
